<mxfile host="app.diagrams.net" modified="2024-06-21T13:02:40.719Z" agent="Mozilla/5.0 (Windows NT 10.0; Win64; x64) AppleWebKit/537.36 (KHTML, like Gecko) Chrome/126.0.0.0 Safari/537.36 Edg/126.0.0.0" etag="Pz01sQtBYgwZB_LWY2AY" version="24.6.0" type="github">
  <diagram id="R2lEEEUBdFMjLlhIrx00" name="Page-1">
    <mxGraphModel dx="2139" dy="1196" grid="1" gridSize="10" guides="1" tooltips="1" connect="1" arrows="1" fold="1" page="1" pageScale="1" pageWidth="850" pageHeight="1100" math="0" shadow="0" extFonts="Permanent Marker^https://fonts.googleapis.com/css?family=Permanent+Marker">
      <root>
        <mxCell id="0" />
        <mxCell id="1" parent="0" />
        <mxCell id="lQm4Ik09-VqyWGkkjGxT-6" value="" style="edgeStyle=orthogonalEdgeStyle;rounded=0;orthogonalLoop=1;jettySize=auto;html=1;entryX=1;entryY=0.5;entryDx=0;entryDy=0;fontSize=21;textShadow=1;" edge="1" parent="1" source="lQm4Ik09-VqyWGkkjGxT-3" target="lQm4Ik09-VqyWGkkjGxT-1">
          <mxGeometry relative="1" as="geometry" />
        </mxCell>
        <mxCell id="lQm4Ik09-VqyWGkkjGxT-7" value="" style="edgeStyle=orthogonalEdgeStyle;rounded=0;orthogonalLoop=1;jettySize=auto;html=1;entryX=1;entryY=0.5;entryDx=0;entryDy=0;fontSize=21;textShadow=1;" edge="1" parent="1" source="lQm4Ik09-VqyWGkkjGxT-2" target="lQm4Ik09-VqyWGkkjGxT-1">
          <mxGeometry relative="1" as="geometry" />
        </mxCell>
        <mxCell id="lQm4Ik09-VqyWGkkjGxT-1" value="商品" style="rounded=0;whiteSpace=wrap;html=1;fillColor=#dae8fc;strokeColor=#6c8ebf;fontSize=21;textShadow=1;" vertex="1" parent="1">
          <mxGeometry x="100" y="270" width="120" height="60" as="geometry" />
        </mxCell>
        <mxCell id="lQm4Ik09-VqyWGkkjGxT-2" value="商品ID" style="ellipse;whiteSpace=wrap;html=1;fillColor=#fff2cc;strokeColor=#d6b656;fontSize=21;textShadow=1;" vertex="1" parent="1">
          <mxGeometry x="320" y="260" width="120" height="80" as="geometry" />
        </mxCell>
        <mxCell id="lQm4Ik09-VqyWGkkjGxT-3" value="商品名称" style="ellipse;whiteSpace=wrap;html=1;fillColor=#fff2cc;strokeColor=#d6b656;fontSize=21;textShadow=1;" vertex="1" parent="1">
          <mxGeometry x="320" y="600" width="120" height="80" as="geometry" />
        </mxCell>
        <mxCell id="lQm4Ik09-VqyWGkkjGxT-8" value="" style="edgeStyle=orthogonalEdgeStyle;rounded=0;orthogonalLoop=1;jettySize=auto;html=1;entryX=1;entryY=0.5;entryDx=0;entryDy=0;fontSize=21;textShadow=1;" edge="1" parent="1" source="lQm4Ik09-VqyWGkkjGxT-4" target="lQm4Ik09-VqyWGkkjGxT-1">
          <mxGeometry relative="1" as="geometry" />
        </mxCell>
        <mxCell id="lQm4Ik09-VqyWGkkjGxT-4" value="商品价格" style="ellipse;whiteSpace=wrap;html=1;fillColor=#fff2cc;strokeColor=#d6b656;fontSize=21;textShadow=1;" vertex="1" parent="1">
          <mxGeometry x="320" y="370" width="120" height="80" as="geometry" />
        </mxCell>
        <mxCell id="lQm4Ik09-VqyWGkkjGxT-9" value="" style="edgeStyle=orthogonalEdgeStyle;rounded=0;orthogonalLoop=1;jettySize=auto;html=1;entryX=1;entryY=0.5;entryDx=0;entryDy=0;fontSize=21;textShadow=1;" edge="1" parent="1" source="lQm4Ik09-VqyWGkkjGxT-5" target="lQm4Ik09-VqyWGkkjGxT-1">
          <mxGeometry relative="1" as="geometry" />
        </mxCell>
        <mxCell id="lQm4Ik09-VqyWGkkjGxT-5" value="商品数量" style="ellipse;whiteSpace=wrap;html=1;fillColor=#fff2cc;strokeColor=#d6b656;fontSize=21;textShadow=1;" vertex="1" parent="1">
          <mxGeometry x="320" y="480" width="120" height="80" as="geometry" />
        </mxCell>
        <mxCell id="lQm4Ik09-VqyWGkkjGxT-14" value="" style="edgeStyle=orthogonalEdgeStyle;rounded=0;orthogonalLoop=1;jettySize=auto;html=1;fontSize=21;textShadow=1;" edge="1" parent="1" source="lQm4Ik09-VqyWGkkjGxT-10" target="lQm4Ik09-VqyWGkkjGxT-13">
          <mxGeometry relative="1" as="geometry" />
        </mxCell>
        <mxCell id="lQm4Ik09-VqyWGkkjGxT-16" value="M" style="edgeLabel;html=1;align=center;verticalAlign=middle;resizable=0;points=[];fontSize=21;textShadow=1;" vertex="1" connectable="0" parent="lQm4Ik09-VqyWGkkjGxT-14">
          <mxGeometry x="-0.075" y="1" relative="1" as="geometry">
            <mxPoint as="offset" />
          </mxGeometry>
        </mxCell>
        <mxCell id="lQm4Ik09-VqyWGkkjGxT-10" value="用户" style="rounded=0;whiteSpace=wrap;html=1;fillColor=#dae8fc;strokeColor=#6c8ebf;fontSize=21;textShadow=1;" vertex="1" parent="1">
          <mxGeometry x="-240" y="270" width="120" height="60" as="geometry" />
        </mxCell>
        <mxCell id="lQm4Ik09-VqyWGkkjGxT-15" value="" style="edgeStyle=orthogonalEdgeStyle;rounded=0;orthogonalLoop=1;jettySize=auto;html=1;fontSize=21;textShadow=1;" edge="1" parent="1" source="lQm4Ik09-VqyWGkkjGxT-13" target="lQm4Ik09-VqyWGkkjGxT-1">
          <mxGeometry relative="1" as="geometry" />
        </mxCell>
        <mxCell id="lQm4Ik09-VqyWGkkjGxT-17" value="N" style="edgeLabel;html=1;align=center;verticalAlign=middle;resizable=0;points=[];fontSize=21;textShadow=1;" vertex="1" connectable="0" parent="lQm4Ik09-VqyWGkkjGxT-15">
          <mxGeometry x="-0.0286" y="-1" relative="1" as="geometry">
            <mxPoint as="offset" />
          </mxGeometry>
        </mxCell>
        <mxCell id="lQm4Ik09-VqyWGkkjGxT-13" value="购买" style="rhombus;whiteSpace=wrap;html=1;rounded=0;fillColor=#d5e8d4;strokeColor=#82b366;fontSize=21;textShadow=1;" vertex="1" parent="1">
          <mxGeometry x="-50" y="260" width="80" height="80" as="geometry" />
        </mxCell>
        <mxCell id="lQm4Ik09-VqyWGkkjGxT-20" value="" style="edgeStyle=orthogonalEdgeStyle;rounded=0;orthogonalLoop=1;jettySize=auto;html=1;entryX=0;entryY=0.5;entryDx=0;entryDy=0;fontSize=21;textShadow=1;" edge="1" parent="1" source="lQm4Ik09-VqyWGkkjGxT-19" target="lQm4Ik09-VqyWGkkjGxT-10">
          <mxGeometry relative="1" as="geometry">
            <Array as="points">
              <mxPoint x="-310" y="180" />
              <mxPoint x="-310" y="300" />
            </Array>
          </mxGeometry>
        </mxCell>
        <mxCell id="lQm4Ik09-VqyWGkkjGxT-19" value="&lt;span style=&quot;background-color: rgb(255, 223, 94);&quot;&gt;用户ID&lt;/span&gt;" style="ellipse;whiteSpace=wrap;html=1;labelBackgroundColor=default;fillColor=#fff2cc;strokeColor=#d6b656;fontSize=21;textShadow=1;" vertex="1" parent="1">
          <mxGeometry x="-480" y="140" width="120" height="80" as="geometry" />
        </mxCell>
        <mxCell id="lQm4Ik09-VqyWGkkjGxT-23" value="" style="edgeStyle=orthogonalEdgeStyle;rounded=0;orthogonalLoop=1;jettySize=auto;html=1;fontSize=21;textShadow=1;" edge="1" parent="1" source="lQm4Ik09-VqyWGkkjGxT-21" target="lQm4Ik09-VqyWGkkjGxT-10">
          <mxGeometry relative="1" as="geometry" />
        </mxCell>
        <mxCell id="lQm4Ik09-VqyWGkkjGxT-21" value="用户名" style="ellipse;whiteSpace=wrap;html=1;fillColor=#fff2cc;strokeColor=#d6b656;fontSize=21;textShadow=1;" vertex="1" parent="1">
          <mxGeometry x="-485" y="260" width="120" height="80" as="geometry" />
        </mxCell>
        <mxCell id="lQm4Ik09-VqyWGkkjGxT-24" value="" style="edgeStyle=orthogonalEdgeStyle;rounded=0;orthogonalLoop=1;jettySize=auto;html=1;entryX=0;entryY=0.5;entryDx=0;entryDy=0;fontSize=21;textShadow=1;" edge="1" parent="1" source="lQm4Ik09-VqyWGkkjGxT-22" target="lQm4Ik09-VqyWGkkjGxT-10">
          <mxGeometry relative="1" as="geometry">
            <Array as="points">
              <mxPoint x="-310" y="420" />
              <mxPoint x="-310" y="300" />
            </Array>
          </mxGeometry>
        </mxCell>
        <mxCell id="lQm4Ik09-VqyWGkkjGxT-22" value="密码" style="ellipse;whiteSpace=wrap;html=1;fillColor=#fff2cc;strokeColor=#d6b656;fontSize=21;textShadow=1;" vertex="1" parent="1">
          <mxGeometry x="-485" y="380" width="120" height="80" as="geometry" />
        </mxCell>
        <mxCell id="lQm4Ik09-VqyWGkkjGxT-33" value="" style="edgeStyle=orthogonalEdgeStyle;rounded=0;orthogonalLoop=1;jettySize=auto;html=1;fontSize=21;textShadow=1;" edge="1" parent="1" source="lQm4Ik09-VqyWGkkjGxT-25" target="lQm4Ik09-VqyWGkkjGxT-32">
          <mxGeometry relative="1" as="geometry" />
        </mxCell>
        <mxCell id="lQm4Ik09-VqyWGkkjGxT-36" value="M" style="edgeLabel;html=1;align=center;verticalAlign=middle;resizable=0;points=[];fontSize=21;textShadow=1;" vertex="1" connectable="0" parent="lQm4Ik09-VqyWGkkjGxT-33">
          <mxGeometry x="-0.3211" y="2" relative="1" as="geometry">
            <mxPoint as="offset" />
          </mxGeometry>
        </mxCell>
        <mxCell id="lQm4Ik09-VqyWGkkjGxT-37" value="N" style="edgeLabel;html=1;align=center;verticalAlign=middle;resizable=0;points=[];fontSize=21;textShadow=1;" vertex="1" connectable="0" parent="lQm4Ik09-VqyWGkkjGxT-33">
          <mxGeometry x="0.6891" y="-1" relative="1" as="geometry">
            <mxPoint y="-1" as="offset" />
          </mxGeometry>
        </mxCell>
        <mxCell id="lQm4Ik09-VqyWGkkjGxT-25" value="管理员" style="rounded=0;whiteSpace=wrap;html=1;fillColor=#dae8fc;strokeColor=#6c8ebf;fontSize=21;textShadow=1;" vertex="1" parent="1">
          <mxGeometry x="-240" y="560" width="120" height="60" as="geometry" />
        </mxCell>
        <mxCell id="lQm4Ik09-VqyWGkkjGxT-29" style="edgeStyle=orthogonalEdgeStyle;rounded=0;orthogonalLoop=1;jettySize=auto;html=1;exitX=1;exitY=0.5;exitDx=0;exitDy=0;entryX=0;entryY=0.5;entryDx=0;entryDy=0;fontSize=21;textShadow=1;" edge="1" parent="1" source="lQm4Ik09-VqyWGkkjGxT-26" target="lQm4Ik09-VqyWGkkjGxT-25">
          <mxGeometry relative="1" as="geometry">
            <Array as="points">
              <mxPoint x="-310" y="540" />
              <mxPoint x="-310" y="590" />
            </Array>
          </mxGeometry>
        </mxCell>
        <mxCell id="lQm4Ik09-VqyWGkkjGxT-26" value="用户ID" style="ellipse;whiteSpace=wrap;html=1;fillColor=#fff2cc;strokeColor=#d6b656;fontSize=21;textShadow=1;" vertex="1" parent="1">
          <mxGeometry x="-482" y="500" width="120" height="80" as="geometry" />
        </mxCell>
        <mxCell id="lQm4Ik09-VqyWGkkjGxT-30" style="edgeStyle=orthogonalEdgeStyle;rounded=0;orthogonalLoop=1;jettySize=auto;html=1;exitX=1;exitY=0.5;exitDx=0;exitDy=0;entryX=0;entryY=0.5;entryDx=0;entryDy=0;fontSize=21;textShadow=1;" edge="1" parent="1" source="lQm4Ik09-VqyWGkkjGxT-27" target="lQm4Ik09-VqyWGkkjGxT-25">
          <mxGeometry relative="1" as="geometry">
            <Array as="points">
              <mxPoint x="-310" y="660" />
              <mxPoint x="-310" y="590" />
            </Array>
          </mxGeometry>
        </mxCell>
        <mxCell id="lQm4Ik09-VqyWGkkjGxT-27" value="用户名" style="ellipse;whiteSpace=wrap;html=1;fillColor=#fff2cc;strokeColor=#d6b656;fontSize=21;textShadow=1;" vertex="1" parent="1">
          <mxGeometry x="-487" y="620" width="120" height="80" as="geometry" />
        </mxCell>
        <mxCell id="lQm4Ik09-VqyWGkkjGxT-31" style="edgeStyle=orthogonalEdgeStyle;rounded=0;orthogonalLoop=1;jettySize=auto;html=1;exitX=1;exitY=0.5;exitDx=0;exitDy=0;entryX=0;entryY=0.5;entryDx=0;entryDy=0;fontSize=21;textShadow=1;" edge="1" parent="1" source="lQm4Ik09-VqyWGkkjGxT-28" target="lQm4Ik09-VqyWGkkjGxT-25">
          <mxGeometry relative="1" as="geometry">
            <Array as="points">
              <mxPoint x="-310" y="780" />
              <mxPoint x="-310" y="590" />
            </Array>
          </mxGeometry>
        </mxCell>
        <mxCell id="lQm4Ik09-VqyWGkkjGxT-28" value="密码" style="ellipse;whiteSpace=wrap;html=1;fillColor=#fff2cc;strokeColor=#d6b656;fontSize=21;textShadow=1;" vertex="1" parent="1">
          <mxGeometry x="-487" y="740" width="120" height="80" as="geometry" />
        </mxCell>
        <mxCell id="lQm4Ik09-VqyWGkkjGxT-34" value="" style="edgeStyle=orthogonalEdgeStyle;rounded=0;orthogonalLoop=1;jettySize=auto;html=1;fontSize=21;textShadow=1;" edge="1" parent="1" source="lQm4Ik09-VqyWGkkjGxT-32" target="lQm4Ik09-VqyWGkkjGxT-1">
          <mxGeometry relative="1" as="geometry" />
        </mxCell>
        <mxCell id="lQm4Ik09-VqyWGkkjGxT-32" value="管理" style="rhombus;whiteSpace=wrap;html=1;rounded=0;fillColor=#d5e8d4;strokeColor=#82b366;fontSize=21;textShadow=1;" vertex="1" parent="1">
          <mxGeometry x="120" y="390" width="80" height="80" as="geometry" />
        </mxCell>
      </root>
    </mxGraphModel>
  </diagram>
</mxfile>
